<svg xmlns="http://www.w3.org/2000/svg" viewBox="0 0 132.73 79.91"><defs><style>.a{fill:#e52629;}</style></defs><title>logo-edit</title><path class="a" d="M8.91,61.28h6.75c5.44,0,9.2,3.73,9.2,8.6v0c0,4.87-3.76,8.65-9.2,8.65H8.91V61.28Zm3.81,3.44V75.15h2.94A4.93,4.93,0,0,0,20.88,70v0a5,5,0,0,0-5.22-5.22H12.72Z" transform="translate(-8.56 -13.78)"/><path class="a" d="M25.72,72v0a6.6,6.6,0,0,1,6.55-6.9c4.43,0,6.45,3.44,6.45,7.19,0,0.3,0,.64,0,1H29.45a3.07,3.07,0,0,0,3.24,2.6,4.34,4.34,0,0,0,3.21-1.36l2.15,1.9a6.63,6.63,0,0,1-5.41,2.47A6.63,6.63,0,0,1,25.72,72m9.34-1.11c-0.22-1.68-1.21-2.82-2.79-2.82s-2.57,1.11-2.87,2.82h5.66Z" transform="translate(-8.56 -13.78)"/><rect class="a" x="31.65" y="46.76" width="3.76" height="18.05"/><path class="a" d="M46.09,60.54h4v3.34h-4V60.54Zm0.1,4.8h3.76V78.59H46.19V65.33Z" transform="translate(-8.56 -13.78)"/><polygon class="a" points="42.25 51.55 46.23 51.55 49.2 60.43 52.19 51.55 56.1 51.55 50.88 64.9 47.47 64.9 42.25 51.55"/><path class="a" d="M64,72v0a6.6,6.6,0,0,1,6.55-6.9c4.43,0,6.45,3.44,6.45,7.19,0,0.3,0,.64,0,1H67.7a3.07,3.07,0,0,0,3.24,2.6,4.34,4.34,0,0,0,3.21-1.36l2.15,1.9A7,7,0,0,1,64,72m9.34-1.11c-0.22-1.68-1.21-2.82-2.79-2.82s-2.57,1.11-2.87,2.82h5.66Z" transform="translate(-8.56 -13.78)"/><path class="a" d="M78.28,65.33H82V68c0.77-1.83,2-3,4.23-2.92V69h-0.2c-2.5,0-4,1.51-4,4.67v4.89H78.28V65.33Z" transform="translate(-8.56 -13.78)"/><polygon class="a" points="78.96 47.5 83.07 47.5 87.62 54.82 92.17 47.5 96.27 47.5 96.27 64.8 92.49 64.8 92.49 53.51 87.62 60.9 87.52 60.9 82.7 53.58 82.7 64.8 78.96 64.8 78.96 47.5"/><path class="a" d="M106.46,72v0a6.6,6.6,0,0,1,6.55-6.9c4.43,0,6.45,3.44,6.45,7.19,0,0.3,0,.64,0,1h-9.22a3.07,3.07,0,0,0,3.24,2.6,4.34,4.34,0,0,0,3.21-1.36l2.15,1.9A7,7,0,0,1,106.46,72m9.34-1.11c-0.22-1.68-1.21-2.82-2.79-2.82s-2.57,1.11-2.87,2.82h5.66Z" transform="translate(-8.56 -13.78)"/><path class="a" d="M120,74.78v0c0-2.89,2.2-4.23,5.34-4.23a9.42,9.42,0,0,1,3.24.54V70.82c0-1.56-1-2.42-2.84-2.42a9.75,9.75,0,0,0-3.66.72l-0.94-2.87a11.69,11.69,0,0,1,5.14-1.06,6.12,6.12,0,0,1,4.47,1.48,5.78,5.78,0,0,1,1.43,4.23v7.69h-3.63V77.15a5.09,5.09,0,0,1-4,1.68c-2.5,0-4.55-1.43-4.55-4.05m8.63-.87V73.25a5.83,5.83,0,0,0-2.4-.49c-1.61,0-2.6.64-2.6,1.83v0c0,1,.84,1.61,2.05,1.61,1.76,0,2.94-1,2.94-2.32" transform="translate(-8.56 -13.78)"/><path class="a" d="M134.42,74.83V68.55h-1.58V65.33h1.58V61.95h3.76v3.39h3.11v3.21h-3.11v5.66a1.09,1.09,0,0,0,1.21,1.29,3.82,3.82,0,0,0,1.85-.47v3a5.54,5.54,0,0,1-3,.77c-2.3,0-3.86-.91-3.86-4" transform="translate(-8.56 -13.78)"/><polygon class="a" points="3.24 74.83 0 69.88 1.7 69.88 3.98 73.48 6.29 69.88 7.93 69.88 4.69 74.79 4.69 78.05 3.24 78.05 3.24 74.83"/><path class="a" d="M17.31,88.78v0a3.29,3.29,0,0,1,6.57,0v0A3.22,3.22,0,0,1,20.58,92a3.19,3.19,0,0,1-3.27-3.19m5.16,0v0a1.9,1.9,0,0,0-1.89-2,1.85,1.85,0,0,0-1.86,2v0a1.9,1.9,0,0,0,1.88,2,1.85,1.85,0,0,0,1.87-1.95" transform="translate(-8.56 -13.78)"/><path class="a" d="M26.59,89.59V85.67H28v3.5a1.28,1.28,0,0,0,1.32,1.49,1.36,1.36,0,0,0,1.39-1.52V85.67h1.42v6.16H30.71v-1A2.22,2.22,0,0,1,28.78,92a2.12,2.12,0,0,1-2.19-2.37" transform="translate(-8.56 -13.78)"/><path class="a" d="M40.37,90.13V86.88H39.59V85.67h0.78V84h1.41v1.69h1.66v1.21H41.78v3a0.67,0.67,0,0,0,.76.77,1.9,1.9,0,0,0,.88-0.21v1.16a2.44,2.44,0,0,1-1.27.32,1.58,1.58,0,0,1-1.77-1.81" transform="translate(-8.56 -13.78)"/><path class="a" d="M45.81,90.06v0c0-1.33,1-2,2.54-2A5.15,5.15,0,0,1,50,88.3V88.15a1.29,1.29,0,0,0-1.53-1.34,4.29,4.29,0,0,0-1.76.39l-0.37-1.11a5.26,5.26,0,0,1,2.32-.5,2.76,2.76,0,0,1,2,.69,2.56,2.56,0,0,1,.67,1.9v3.65H50V91.06a2.5,2.5,0,0,1-2,.9,2,2,0,0,1-2.18-1.9M50,89.61V89.19a3.91,3.91,0,0,0-1.4-.25c-0.91,0-1.45.39-1.45,1v0a1,1,0,0,0,1.2.93A1.46,1.46,0,0,0,50,89.61" transform="translate(-8.56 -13.78)"/><path class="a" d="M54.41,85.67h1.41v1a2.47,2.47,0,0,1,2.1-1.16,3,3,0,0,1,2.86,3.2v0A3,3,0,0,1,57.92,92a2.52,2.52,0,0,1-2.1-1.09V93.7H54.41v-8Zm4.94,3.09v0a1.82,1.82,0,0,0-1.76-2,1.86,1.86,0,0,0-1.8,2v0a1.86,1.86,0,0,0,1.8,2,1.8,1.8,0,0,0,1.76-2" transform="translate(-8.56 -13.78)"/><polygon class="a" points="59.35 71.89 60.79 71.89 62.03 76.11 63.4 71.86 64.61 71.86 65.97 76.11 67.23 71.89 68.66 71.89 66.64 78.09 65.37 78.09 63.99 73.88 62.6 78.09 61.34 78.09 59.35 71.89"/><path class="a" d="M79.18,88.77v0a3.06,3.06,0,0,1,3-3.21c2,0,3,1.54,3,3.31,0,0.13,0,.26,0,0.4H80.59a1.72,1.72,0,0,0,1.77,1.56A2.24,2.24,0,0,0,84,90.08l0.83,0.74A3.12,3.12,0,0,1,82.34,92a3.07,3.07,0,0,1-3.16-3.2m4.56-.46a1.6,1.6,0,0,0-1.56-1.62,1.67,1.67,0,0,0-1.6,1.62h3.16Z" transform="translate(-8.56 -13.78)"/><path class="a" d="M92.91,83.66h3a4.07,4.07,0,0,1,4.34,4.06v0A4.09,4.09,0,0,1,96,91.83h-3V83.66ZM94.35,85v5.55H96a2.66,2.66,0,0,0,2.84-2.75v0A2.68,2.68,0,0,0,96,85H94.35Z" transform="translate(-8.56 -13.78)"/><path class="a" d="M102.88,88.77v0a3.06,3.06,0,0,1,3-3.21c2,0,3,1.54,3,3.31,0,0.13,0,.26,0,0.4h-4.53a1.72,1.72,0,0,0,1.77,1.56,2.24,2.24,0,0,0,1.67-.74l0.83,0.74A3.12,3.12,0,0,1,106,92a3.07,3.07,0,0,1-3.16-3.2m4.56-.46a1.6,1.6,0,0,0-1.56-1.62,1.67,1.67,0,0,0-1.6,1.62h3.16Z" transform="translate(-8.56 -13.78)"/><rect class="a" x="103.13" y="69.53" width="1.41" height="8.52"/><path class="a" d="M116.31,83.38h1.52v1.34h-1.52V83.38Zm0.06,2.29h1.41v6.16h-1.41V85.67Z" transform="translate(-8.56 -13.78)"/><polygon class="a" points="111.82 71.89 113.34 71.89 115 76.41 116.66 71.89 118.14 71.89 115.63 78.09 114.35 78.09 111.82 71.89"/><path class="a" d="M128.56,88.77v0a3.06,3.06,0,0,1,3-3.21c2,0,3,1.54,3,3.31,0,0.13,0,.26,0,0.4H130a1.72,1.72,0,0,0,1.77,1.56,2.24,2.24,0,0,0,1.67-.74l0.83,0.74A3.12,3.12,0,0,1,131.72,92a3.07,3.07,0,0,1-3.16-3.2m4.56-.46a1.6,1.6,0,0,0-1.56-1.62,1.67,1.67,0,0,0-1.6,1.62h3.16Z" transform="translate(-8.56 -13.78)"/><path class="a" d="M137.29,85.67h1.41v1.39a2.18,2.18,0,0,1,2.18-1.51V87H140.8c-1.24,0-2.1.81-2.1,2.44v2.35h-1.41V85.67Z" transform="translate(-8.56 -13.78)"/><path class="a" d="M75.12,43.85a2.63,2.63,0,0,1-4.91,1.31,2.67,2.67,0,0,1-.31-2,2.57,2.57,0,0,1,1.46-1.74,2.54,2.54,0,0,1,.37-0.13,2.65,2.65,0,0,1,.68-0.09,2.72,2.72,0,0,1,2.71,2.68" transform="translate(-8.56 -13.78)"/><path class="a" d="M95.47,43.86a2.52,2.52,0,0,1-.1.69,2.66,2.66,0,0,1-2.55,1.9,2.79,2.79,0,0,1-2.49-1.9,2.4,2.4,0,0,1-.13-0.83,2.63,2.63,0,0,1,5.27.14" transform="translate(-8.56 -13.78)"/><path class="a" d="M97.51,35.5c-1.32-.16-2.63-0.33-3.94-0.56a3.49,3.49,0,0,1-2.17-1.4,0.72,0.72,0,0,1-.21-0.76A0.71,0.71,0,0,1,92,32.43h1.48a12.86,12.86,0,0,1,2.23.17,3.54,3.54,0,0,1,2.44,2c0.28,0.57,0,1-.59.88" transform="translate(-8.56 -13.78)"/><path class="a" d="M98.55,41.15A1.83,1.83,0,0,1,98,42.42c-0.35.35-.89,0.58-1.07,0.16a4.3,4.3,0,0,0-8.07-.44,0.77,0.77,0,0,1-1,.13,1.34,1.34,0,0,1-1-1.33c0-1.5,0-3,0-4.5s0-2.79,0-4.18a3.73,3.73,0,0,1,1.26-2.86,2.57,2.57,0,0,1,1.56-.69,8.45,8.45,0,0,1,4.4,1,0.64,0.64,0,0,1,.4.73,0.65,0.65,0,0,1-.63.55,4.7,4.7,0,0,1-.51,0c-0.56,0-1.12,0-1.67,0a1.94,1.94,0,0,0-1.93,1.57A1.91,1.91,0,0,0,90,34.16a5.24,5.24,0,0,0,3.45,2.27c0.53,0.1,1.06.16,1.58,0.27a4.48,4.48,0,0,1,3.47,4.45" transform="translate(-8.56 -13.78)"/><path class="a" d="M85.27,37.12a6.73,6.73,0,0,1-1.67,3.53A8,8,0,0,1,82.07,42c-1,.67-4.92,2-5.54.48a4.3,4.3,0,0,0-4.07-2.91H72.34a4.29,4.29,0,0,0-.64.07l-0.35.08a4.3,4.3,0,0,0-2.94,2.74c-0.28.91-1.14,0.72-1.81,0.72H62.91l-0.44,0a4.94,4.94,0,0,1-2.4-1l-0.26-.21a5,5,0,0,1-1.66-3.05h0l-0.07-.41h10a0.91,0.91,0,0,0,0-1.82H57.3a6,6,0,0,1-5.45-3.44,5.94,5.94,0,0,1-.33-0.86h7.57l0,0h0.52l10.88-.05a0.83,0.83,0,0,0,0-1.66h-17A6.13,6.13,0,0,1,49,28.07l0,0a6,6,0,0,1-.8-1.59L48,25.89h5.53l8.33,0h4.26v0H68c3.18,0,6.35,0,9.53,0A7.64,7.64,0,0,1,83,27.95a7.79,7.79,0,0,1,.61.64,7.08,7.08,0,0,1,1.67,3.72,16.72,16.72,0,0,1,0,4.81" transform="translate(-8.56 -13.78)"/><path class="a" d="M104.27,36.27a22.49,22.49,0,0,1-43,9.29h0a6.86,6.86,0,0,1-6-6.67c-4.54.07-7.37-4.82-6.45-8-2.67-.76-4.23-4.57-2.58-6.46a7.91,7.91,0,0,0,2.33,5.35,7.58,7.58,0,0,0,.94.8A7.77,7.77,0,0,0,56,38.25a8.22,8.22,0,0,0,8.12,6.91h4.21l0,0a4.3,4.3,0,0,0,8.15,0c0.25-.66,1-0.64,1.73-0.64,1.42,0,2.83,0,4.25,0h1.09v0h3.54a1.47,1.47,0,0,1,1.65.74l0.1,0.25a4.29,4.29,0,0,0,8-.49,0.53,0.53,0,0,1,.55-0.5h0.23a3.17,3.17,0,0,0,3.17-3.17V37.65A10.39,10.39,0,0,0,90.51,27.27H85.67a4,4,0,0,1-2.28-.88,9.05,9.05,0,0,0-5.79-2q-6.33,0-12.66,0H62.64a22.49,22.49,0,0,1,41.63,11.81" transform="translate(-8.56 -13.78)"/></svg>