<?xml version="1.0" encoding="UTF-8" standalone="no"?>
<!-- Created with Inkscape (http://www.inkscape.org/) -->

<svg
   version="1.1"
   id="svg2"
   width="7333.3335"
   height="4933.3335"
   viewBox="0 0 7333.3335 4933.3335"
   sodipodi:docname="logo.ai"
   xmlns:inkscape="http://www.inkscape.org/namespaces/inkscape"
   xmlns:sodipodi="http://sodipodi.sourceforge.net/DTD/sodipodi-0.dtd"
   xmlns="http://www.w3.org/2000/svg"
   xmlns:svg="http://www.w3.org/2000/svg">
  <defs
     id="defs6">
    <clipPath
       clipPathUnits="userSpaceOnUse"
       id="clipPath16">
      <path
         d="M 0,3700 H 5500 V 0 H 0 Z"
         id="path14" />
    </clipPath>
  </defs>
  <sodipodi:namedview
     id="namedview4"
     pagecolor="#ffffff"
     bordercolor="#000000"
     borderopacity="0.25"
     inkscape:showpageshadow="2"
     inkscape:pageopacity="0.0"
     inkscape:pagecheckerboard="0"
     inkscape:deskcolor="#d1d1d1" />
  <g
     id="g8"
     inkscape:groupmode="layer"
     inkscape:label="logo"
     transform="matrix(1.3333333,0,0,-1.3333333,0,4933.3333)">
    <g
       id="g10">
      <g
         id="g12"
         clip-path="url(#clipPath16)">
        <g
           id="g18"
           transform="translate(1692.5216,1663.3922)">
          <path
             d="m 0,0 v -177.338 h 50.008 c 52.949,0 88.668,35.72 88.668,87.829 v 0.84 C 138.676,-36.56 102.957,0 50.008,0 Z M -64.716,58.412 H 50.008 c 92.45,0 156.326,-63.455 156.326,-146.24 v -0.841 c 0,-82.785 -63.876,-147.081 -156.326,-147.081 H -64.716 Z"
             style="fill:#ed1c24;fill-opacity:1;fill-rule:nonzero;stroke:none"
             id="path20" />
        </g>
        <g
           id="g22"
           transform="translate(2072.4097,1557.9141)">
          <path
             d="M 0,0 C -3.782,28.576 -20.591,47.906 -47.486,47.906 -73.961,47.906 -91.19,28.996 -96.233,0 Z m -158.847,-18.91 v 0.84 c 0,64.295 45.805,117.245 111.361,117.245 75.221,0 109.68,-58.413 109.68,-122.288 0,-5.043 -0.42,-10.926 -0.84,-16.809 H -95.392 c 6.303,-28.996 26.474,-44.124 55.05,-44.124 21.432,0 36.98,6.723 54.63,23.113 l 36.56,-32.358 c -21.012,-26.055 -51.268,-42.023 -92.031,-42.023 -67.657,0 -117.664,47.486 -117.664,116.404"
             style="fill:#ed1c24;fill-opacity:1;fill-rule:nonzero;stroke:none"
             id="path24" />
        </g>
        <path
           d="m 2159.815,1734.411 h 63.875 v -306.769 h -63.875 z"
           style="fill:#ed1c24;fill-opacity:1;fill-rule:nonzero;stroke:none"
           id="path26" />
        <path
           d="m 2261.505,1652.886 h 63.875 v -225.244 h -63.875 z m -1.681,81.525 h 67.237 v -56.731 h -67.237 z"
           style="fill:#ed1c24;fill-opacity:1;fill-rule:nonzero;stroke:none"
           id="path28" />
        <g
           id="g30"
           transform="translate(2340.083,1652.8865)">
          <path
             d="M 0,0 H 67.657 L 118.085,-150.863 168.933,0 H 235.33 L 146.661,-226.925 H 88.669 Z"
             style="fill:#ed1c24;fill-opacity:1;fill-rule:nonzero;stroke:none"
             id="path32" />
        </g>
        <g
           id="g34"
           transform="translate(2722.4905,1557.9141)">
          <path
             d="M 0,0 C -3.782,28.576 -20.591,47.906 -47.486,47.906 -73.961,47.906 -91.19,28.996 -96.233,0 Z m -158.848,-18.91 v 0.84 c 0,64.295 45.806,117.245 111.362,117.245 75.221,0 109.68,-58.413 109.68,-122.288 0,-5.043 -0.42,-10.926 -0.84,-16.809 H -95.393 c 6.304,-28.996 26.475,-44.124 55.051,-44.124 21.432,0 36.98,6.723 54.63,23.113 l 36.56,-32.358 c -21.012,-26.055 -51.268,-42.023 -92.031,-42.023 -67.657,0 -117.665,47.486 -117.665,116.404"
             style="fill:#ed1c24;fill-opacity:1;fill-rule:nonzero;stroke:none"
             id="path36" />
        </g>
        <g
           id="g38"
           transform="translate(2806.9531,1652.8865)">
          <path
             d="m 0,0 h 63.875 v -45.385 c 13.027,31.097 34.039,51.268 71.86,49.587 v -66.817 h -3.362 c -42.444,0 -68.498,-25.634 -68.498,-79.423 v -83.206 H 0 Z"
             style="fill:#ed1c24;fill-opacity:1;fill-rule:nonzero;stroke:none"
             id="path40" />
        </g>
        <g
           id="g42"
           transform="translate(2964.1196,1721.8044)">
          <path
             d="M 0,0 H 69.759 L 147.081,-124.389 224.403,0 h 69.759 v -294.162 h -64.296 v 192.046 l -82.785,-125.65 H 145.4 L 63.455,-103.377 V -294.162 H 0 Z"
             style="fill:#ed1c24;fill-opacity:1;fill-rule:nonzero;stroke:none"
             id="path44" />
        </g>
        <g
           id="g46"
           transform="translate(3444.863,1557.9141)">
          <path
             d="M 0,0 C -3.782,28.576 -20.592,47.906 -47.486,47.906 -73.961,47.906 -91.19,28.996 -96.233,0 Z m -158.848,-18.91 v 0.84 c 0,64.295 45.806,117.245 111.362,117.245 75.221,0 109.68,-58.413 109.68,-122.288 0,-5.043 -0.42,-10.926 -0.84,-16.809 H -95.393 c 6.304,-28.996 26.475,-44.124 55.051,-44.124 21.432,0 36.98,6.723 54.63,23.113 l 36.56,-32.358 c -21.012,-26.055 -51.268,-42.023 -92.031,-42.023 -67.657,0 -117.665,47.486 -117.665,116.404"
             style="fill:#ed1c24;fill-opacity:1;fill-rule:nonzero;stroke:none"
             id="path48" />
        </g>
        <g
           id="g50"
           transform="translate(3662.5391,1507.066)">
          <path
             d="m 0,0 v 11.346 c -10.926,5.043 -25.214,8.405 -40.762,8.405 -27.316,0 -44.125,-10.926 -44.125,-31.097 v -0.841 c 0,-17.229 14.288,-27.315 34.879,-27.315 C -20.171,-39.502 0,-23.113 0,0 m -146.661,-14.708 v 0.84 c 0,49.167 37.401,71.86 90.77,71.86 22.693,0 39.082,-3.782 55.05,-9.245 v 3.782 c 0,26.475 -16.388,41.183 -48.326,41.183 -24.374,0 -41.603,-4.623 -62.194,-12.187 l -15.969,48.747 c 24.793,10.926 49.167,18.07 87.408,18.07 34.879,0 60.093,-9.245 76.062,-25.214 16.809,-16.809 24.373,-41.603 24.373,-71.86 V -79.424 H -1.261 v 24.374 c -15.548,-17.23 -36.98,-28.576 -68.077,-28.576 -42.443,0 -77.323,24.373 -77.323,68.918"
             style="fill:#ed1c24;fill-opacity:1;fill-rule:nonzero;stroke:none"
             id="path52" />
        </g>
        <g
           id="g54"
           transform="translate(3761.2957,1491.5176)">
          <path
             d="m 0,0 v 106.739 h -26.895 v 54.63 H 0 v 57.572 h 63.875 v -57.572 h 52.949 v -54.63 H 63.875 V 10.506 c 0,-14.708 6.304,-21.852 20.592,-21.852 11.766,0 22.272,2.941 31.517,7.984 V -54.63 C 102.536,-62.615 86.988,-67.657 65.556,-67.657 26.475,-67.657 0,-52.109 0,0"
             style="fill:#ed1c24;fill-opacity:1;fill-rule:nonzero;stroke:none"
             id="path56" />
        </g>
        <g
           id="g58"
           transform="translate(1677.0217,1257.2789)">
          <path
             d="m 0,0 -55.142,84.101 h 28.96 l 38.678,-61.29 39.273,61.29 H 79.737 L 24.596,0.595 v -55.34 l -24.596,0 z"
             style="fill:#ed1c24;fill-opacity:1;fill-rule:nonzero;stroke:none"
             id="path60" />
        </g>
        <g
           id="g62"
           transform="translate(1858.3138,1254.3044)">
          <path
             d="m 0,0 v 0.396 c 0,18.447 -13.29,33.72 -32.133,33.72 -19.24,0 -31.538,-15.074 -31.538,-33.323 V 0.396 c 0,-18.248 13.29,-33.521 31.935,-33.521 C -12.298,-33.125 0,-18.05 0,0 m -87.671,0 v 0.396 c 0,29.952 23.802,54.745 55.935,54.745 C 0.397,55.141 24,30.744 24,0.793 V 0.396 c 0,-29.752 -23.802,-54.547 -56.133,-54.547 -31.935,0 -55.538,24.398 -55.538,54.151"
             style="fill:#ed1c24;fill-opacity:1;fill-rule:nonzero;stroke:none"
             id="path64" />
        </g>
        <g
           id="g66"
           transform="translate(1928.3295,1240.6174)">
          <path
             d="M 0,0 V 66.646 H 24.001 V 7.141 c 0,-16.265 8.132,-25.389 22.413,-25.389 13.885,0 23.604,9.521 23.604,25.786 V 66.646 H 94.217 V -38.083 H 70.018 v 16.265 C 63.274,-31.736 53.555,-40.265 37.29,-40.265 13.687,-40.265 0,-24.396 0,0"
             style="fill:#ed1c24;fill-opacity:1;fill-rule:nonzero;stroke:none"
             id="path68" />
        </g>
        <g
           id="g70"
           transform="translate(2162.5769,1231.4938)">
          <path
             d="M 0,0 V 55.141 H -13.29 V 75.77 H 0 v 28.761 H 24 V 75.77 H 52.166 V 55.141 H 24 V 3.769 c 0,-9.323 4.76,-13.092 12.893,-13.092 5.356,0 10.116,1.191 14.876,3.571 v -19.637 c -5.95,-3.372 -12.496,-5.356 -21.62,-5.356 C 12.496,-30.745 0,-23.009 0,0"
             style="fill:#ed1c24;fill-opacity:1;fill-rule:nonzero;stroke:none"
             id="path72" />
        </g>
        <g
           id="g74"
           transform="translate(2326.8096,1240.2213)">
          <path
             d="m 0,0 v 7.141 c -6.149,2.38 -14.281,4.165 -23.802,4.165 -15.471,0 -24.596,-6.546 -24.596,-17.455 v -0.396 c 0,-10.117 8.926,-15.868 20.43,-15.868 C -12.1,-22.413 0,-13.29 0,0 m -71.803,-7.538 v 0.397 c 0,22.612 17.653,33.719 43.241,33.719 11.702,0 20.033,-1.784 28.165,-4.363 v 2.579 c 0,14.876 -9.124,22.81 -25.984,22.81 -11.702,0 -20.43,-2.578 -29.951,-6.545 l -6.347,18.842 c 11.504,5.158 22.81,8.53 39.472,8.53 15.67,0 27.372,-4.165 34.711,-11.703 C 19.24,49.191 22.81,38.083 22.81,24.397 V -37.687 H -0.595 v 13.091 c -7.141,-8.529 -18.05,-15.272 -34.117,-15.272 -19.636,0 -37.091,11.305 -37.091,32.33"
             style="fill:#ed1c24;fill-opacity:1;fill-rule:nonzero;stroke:none"
             id="path76" />
        </g>
        <g
           id="g78"
           transform="translate(2485.0908,1254.7007)">
          <path
             d="m 0,0 v 0.397 c 0,20.232 -13.687,33.521 -29.951,33.521 -16.265,0 -30.547,-13.488 -30.547,-33.521 V 0 c 0,-20.033 14.282,-33.521 30.547,-33.521 C -13.488,-33.521 0,-20.629 0,0 m -83.903,52.563 h 24.001 V 35.108 c 7.735,10.909 18.645,19.637 35.703,19.637 24.596,0 48.596,-19.438 48.596,-54.348 V 0 c 0,-34.712 -23.802,-54.348 -48.596,-54.348 -17.455,0 -28.364,8.728 -35.703,18.447 v -48.002 h -24.001 z"
             style="fill:#ed1c24;fill-opacity:1;fill-rule:nonzero;stroke:none"
             id="path80" />
        </g>
        <g
           id="g82"
           transform="translate(2630.6731,1307.2635)">
          <path
             d="m 0,0 h 24.596 l 21.025,-71.803 23.207,72.2 h 20.629 l 23.207,-72.2 L 134.086,0 h 24.198 L 123.97,-105.523 H 102.349 L 78.944,-33.917 55.34,-105.523 H 33.918 Z"
             style="fill:#ed1c24;fill-opacity:1;fill-rule:nonzero;stroke:none"
             id="path84" />
        </g>
        <g
           id="g86"
           transform="translate(2899.8342,1262.2385)">
          <path
             d="M 0,0 C -1.587,15.471 -10.711,27.57 -26.579,27.57 -41.257,27.57 -51.572,16.264 -53.753,0 Z m -77.555,-7.736 v 0.396 c 0,29.952 21.223,54.547 51.174,54.547 33.323,0 50.183,-26.182 50.183,-56.332 0,-2.182 -0.198,-4.363 -0.397,-6.743 h -76.96 c 2.579,-17.059 14.678,-26.58 30.149,-26.58 11.703,0 20.034,4.365 28.365,12.497 l 14.083,-12.497 c -9.918,-11.901 -23.604,-19.637 -42.844,-19.637 -30.348,0 -53.753,22.017 -53.753,54.349"
             style="fill:#ed1c24;fill-opacity:1;fill-rule:nonzero;stroke:none"
             id="path88" />
        </g>
        <g
           id="g90"
           transform="translate(3080.1289,1319.1646)">
          <path
             d="m 0,0 v -94.415 h 27.372 c 29.158,0 48.2,19.637 48.2,46.811 v 0.397 C 75.572,-20.033 56.53,0 27.372,0 Z m -24.398,22.215 h 51.77 c 43.638,0 73.787,-29.95 73.787,-69.026 v -0.396 c 0,-39.075 -30.149,-69.424 -73.787,-69.424 h -51.77 z"
             style="fill:#ed1c24;fill-opacity:1;fill-rule:nonzero;stroke:none"
             id="path92" />
        </g>
        <g
           id="g94"
           transform="translate(3302.6765,1262.2385)">
          <path
             d="M 0,0 C -1.587,15.471 -10.711,27.57 -26.579,27.57 -41.257,27.57 -51.572,16.264 -53.753,0 Z m -77.555,-7.736 v 0.396 c 0,29.952 21.223,54.547 51.174,54.547 33.323,0 50.183,-26.182 50.183,-56.332 0,-2.182 -0.198,-4.363 -0.397,-6.743 h -76.96 c 2.578,-17.059 14.678,-26.58 30.149,-26.58 11.703,0 20.034,4.365 28.365,12.497 l 14.083,-12.497 c -9.918,-11.901 -23.604,-19.637 -42.844,-19.637 -30.348,0 -53.753,22.017 -53.753,54.349"
             style="fill:#ed1c24;fill-opacity:1;fill-rule:nonzero;stroke:none"
             id="path96" />
        </g>
        <path
           d="m 3374.873,1347.331 h 24 v -144.797 h -24 z"
           style="fill:#ed1c24;fill-opacity:1;fill-rule:nonzero;stroke:none"
           id="path98" />
        <path
           d="m 3454.409,1307.264 h 24.001 v -104.73 h -24.001 z m -0.992,38.876 h 25.786 v -22.81 h -25.786 z"
           style="fill:#ed1c24;fill-opacity:1;fill-rule:nonzero;stroke:none"
           id="path100" />
        <g
           id="g102"
           transform="translate(3522.6409,1307.2635)">
          <path
             d="M 0,0 H 25.786 L 53.951,-76.96 82.316,0 h 25.19 L 64.663,-105.523 H 43.042 Z"
             style="fill:#ed1c24;fill-opacity:1;fill-rule:nonzero;stroke:none"
             id="path104" />
        </g>
        <g
           id="g106"
           transform="translate(3739.2363,1262.2385)">
          <path
             d="M 0,0 C -1.587,15.471 -10.711,27.57 -26.579,27.57 -41.257,27.57 -51.572,16.264 -53.754,0 Z m -77.556,-7.736 v 0.396 c 0,29.952 21.224,54.547 51.175,54.547 33.323,0 50.183,-26.182 50.183,-56.332 0,-2.182 -0.198,-4.363 -0.397,-6.743 h -76.96 c 2.579,-17.059 14.678,-26.58 30.149,-26.58 11.703,0 20.034,4.365 28.364,12.497 l 14.084,-12.497 c -9.918,-11.901 -23.604,-19.637 -42.844,-19.637 -30.348,0 -53.754,22.017 -53.754,54.349"
             style="fill:#ed1c24;fill-opacity:1;fill-rule:nonzero;stroke:none"
             id="path108" />
        </g>
        <g
           id="g110"
           transform="translate(3810.0437,1307.2635)">
          <path
             d="m 0,0 h 24.001 v -23.603 c 6.545,15.669 18.644,26.38 37.091,25.587 v -25.389 h -1.388 c -21.026,0 -35.703,-13.686 -35.703,-41.455 v -39.87 l -24.001,0 z"
             style="fill:#ed1c24;fill-opacity:1;fill-rule:nonzero;stroke:none"
             id="path112" />
        </g>
        <g
           id="g114"
           transform="translate(2753.2158,2018.0394)">
          <path
             d="m 0,0 c -0.111,-23.863 -21.033,-44.605 -44.849,-44.463 -16.235,0.101 -30.661,9.078 -38.643,22.277 -4.111,6.782 -6.507,14.69 -6.56,23.08 -0.031,3.957 0.439,7.766 1.354,11.411 3.312,13.288 12.506,24.085 24.747,29.502 2.01,0.894 4.105,1.64 6.274,2.227 3.671,1.005 7.544,1.545 11.559,1.576 C -21.054,45.785 0.122,24.837 0,0"
             style="fill:#ed1c24;fill-opacity:1;fill-rule:nonzero;stroke:none"
             id="path116" />
        </g>
        <g
           id="g118"
           transform="translate(3099.1189,2017.8438)">
          <path
             d="m 0,0 c -0.042,-4.026 -0.64,-7.951 -1.746,-11.691 -5.491,-18.626 -23.276,-32.676 -43.293,-32.332 -18.991,0.338 -36.379,14.542 -42.32,32.332 -1.503,4.512 -2.286,9.252 -2.153,14.05 0.608,23.541 21.16,43.368 44.827,43.246 C -20.092,45.478 0.185,24.789 0,0"
             style="fill:#ed1c24;fill-opacity:1;fill-rule:nonzero;stroke:none"
             id="path120" />
        </g>
        <g
           id="g122"
           transform="translate(3133.8213,2159.9546)">
          <path
             d="m 0,0 c -22.387,2.671 -44.785,5.602 -66.971,9.585 -15.183,2.73 -27.461,11.39 -36.856,23.721 -2.851,3.745 -5.877,7.803 -3.581,12.944 2.512,5.634 7.697,6.042 12.955,6.042 8.385,-0.011 16.753,0 25.133,0 1.412,0.1 25.672,-0.043 37.924,-2.878 C -12.315,45.002 1.476,32.75 10.046,15.039 14.754,5.285 10.665,-1.28 0,0"
             style="fill:#ed1c24;fill-opacity:1;fill-rule:nonzero;stroke:none"
             id="path124" />
        </g>
        <g
           id="g126"
           transform="translate(3151.4688,2064.0574)">
          <path
             d="m 0,0 c -0.344,-8.348 -3.015,-15.77 -8.967,-21.679 -5.903,-5.877 -15.065,-9.913 -18.229,-2.766 -9.019,30.089 -36.908,51.995 -69.918,51.995 -30.19,0 -56.095,-18.33 -67.209,-44.457 -3.19,-6.692 -11.194,-4.221 -17.426,-2.291 -10.728,3.344 -17.124,11.279 -17.224,22.573 -0.191,25.519 -0.058,51.027 -0.058,76.557 0,23.704 -0.328,47.393 0.1,71.092 0.334,18.981 6.793,35.629 21.372,48.531 7.612,6.75 16.462,11.072 26.556,11.691 26.444,1.587 51.334,-4.454 74.864,-16.452 5.105,-2.603 7.887,-6.565 6.829,-12.331 -1.058,-5.766 -5.094,-8.644 -10.717,-9.316 -2.883,-0.333 -5.803,-0.418 -8.713,-0.434 -9.485,-0.095 -18.97,0.143 -28.434,-0.185 -17.065,-0.582 -28.724,-10.268 -32.792,-26.741 -2.439,-9.881 -0.154,-18.912 5.411,-27.042 14.252,-20.832 33.846,-33.798 58.682,-38.565 8.94,-1.708 18.018,-2.697 26.926,-4.528 C -24.635,68.58 1.487,34.914 0,0"
             style="fill:#ed1c24;fill-opacity:1;fill-rule:nonzero;stroke:none"
             id="path128" />
        </g>
        <g
           id="g130"
           transform="translate(2925.8499,2132.5313)">
          <path
             d="m 0,0 c -3.682,-23.514 -13.431,-43.463 -28.307,-60.005 -7.453,-8.305 -16.198,-15.748 -26.111,-22.35 -17.05,-11.358 -83.667,-33.634 -94.12,-8.083 -9.771,28.793 -37.03,49.514 -69.125,49.514 -0.708,0 -1.412,-0.01 -2.116,-0.037 -3.681,-0.1 -7.3,-0.481 -10.828,-1.111 -2.021,-0.354 -4.015,-0.804 -5.978,-1.333 -12.426,-3.322 -23.535,-9.85 -32.412,-18.636 -7.818,-7.745 -13.912,-17.24 -17.6,-27.868 -4.761,-15.463 -19.393,-12.278 -30.84,-12.278 h -60.105 c -0.847,0 -1.698,0.005 -2.534,0.037 l -7.554,0.571 c -15.156,1.799 -29.175,7.639 -40.85,16.489 -1.518,1.143 -2.994,2.343 -4.428,3.592 -14.902,12.939 -25.297,31.089 -28.232,51.911 h 0.01 c -0.042,0.106 -1.116,6.797 -1.142,6.903 h 170.343 c 8.554,0 15.489,6.93 15.489,15.484 0,4.274 -1.735,8.147 -4.533,10.95 -2.799,2.799 -6.671,4.534 -10.945,4.539 l -149.602,0.106 -33.956,0.027 c -9.496,0 -18.69,1.29 -27.424,3.718 -28.762,7.994 -52.471,28.228 -65.152,54.72 -2.264,4.708 -4.168,9.623 -5.692,14.696 h 29.963 c 0.063,-0.064 0.111,-0.122 0.175,-0.185 l 38.289,0.185 h 60.211 c 0.185,0.1 0.375,0.201 0.56,0.291 l 8.914,0.042 185.007,0.9 c 7.766,0.036 14.04,6.342 14.04,14.103 0,3.893 -1.576,7.421 -4.131,9.976 -2.555,2.55 -6.079,4.132 -9.977,4.132 h -282.545 c -0.264,0 -0.529,0 -0.793,0.011 -0.265,0 -0.53,0 -0.794,0.01 -1.735,0.037 -3.476,0.122 -5.195,0.254 -31.428,2.233 -59.052,18.473 -76.641,42.489 -0.17,0.223 -0.334,0.455 -0.498,0.688 -5.755,8.147 -10.389,17.214 -13.632,27.038 l -3.095,9.342 h 92.84 c 0.407,0.095 0.815,0.174 1.222,0.253 l 141.64,0.392 49.007,0.138 19.62,0.052 v 0.164 h 3.761 v -0.296 c 10.549,0 21.081,-0.01 31.624,-0.032 54.006,-0.079 108.017,-0.306 162.028,0.212 36.194,0.349 67.394,-11.426 93.464,-35.829 3.702,-3.465 7.168,-7.073 10.373,-10.839 C -12.934,127.145 -3.11,105.917 0.132,81.736 3.782,54.55 4.227,27.048 0,0"
             style="fill:#ed1c24;fill-opacity:1;fill-rule:nonzero;stroke:none"
             id="path132" />
        </g>
        <g
           id="g134"
           transform="translate(3248.7678,2146.9624)">
          <path
             d="m 0,0 c 0,-211.109 -171.137,-382.245 -382.245,-382.245 -154.77,0 -288.057,91.987 -348.167,224.269 h -0.006 c -31.115,4.063 -99.542,31.36 -102.081,113.371 -77.192,-1.27 -125.31,81.889 -109.694,135.593 -45.451,12.95 -71.859,77.699 -43.811,109.783 1.952,-37.574 16.309,-67.653 39.595,-90.935 4.952,-4.951 10.3,-9.495 16.003,-13.585 0.153,-65.484 47.99,-119.771 110.629,-129.97 4.767,-29.624 18.849,-56.132 39.157,-76.435 12.098,-12.104 26.402,-21.991 42.262,-29.021 17.309,-7.676 36.459,-11.934 56.603,-11.934 h 71.516 c 0.153,-0.154 0.306,-0.297 0.46,-0.445 3.952,-11.786 10.839,-22.228 19.774,-30.454 7.369,-6.803 16.145,-12.088 25.836,-15.394 7.401,-2.529 15.331,-3.904 23.588,-3.904 8.227,0 16.124,1.365 23.493,3.877 12.887,4.37 24.149,12.252 32.661,22.488 5.787,6.972 10.31,15.04 13.198,23.832 4.185,11.267 17.193,10.897 29.36,10.807 24.069,-0.19 48.134,-0.047 72.198,-0.047 v -0.117 h 18.446 v -0.344 h 60.179 c 8.845,-0.222 21.383,1.974 28.101,-12.659 0.518,-1.422 1.079,-2.814 1.693,-4.189 8.294,-18.88 24.36,-33.581 44.145,-40.046 7.136,-2.338 14.77,-3.602 22.694,-3.602 32.983,0 60.851,21.879 69.886,51.916 2.005,6.343 4.476,8.908 9.406,8.58 h 3.835 c 29.767,0 53.895,24.128 53.895,53.9 v 63.359 c 0,97.516 -79.059,176.58 -176.575,176.58 h -0.937 c -1.767,0.037 -3.528,0.048 -5.305,0.037 -1.677,-0.021 -3.354,-0.032 -5.032,-0.037 h -70.859 c -14.315,0.905 -27.043,5.936 -38.686,15.013 -28.883,22.504 -61.438,33.444 -98.442,33.259 -71.706,-0.376 -143.407,-0.466 -215.118,-0.498 l -39.209,-0.005 C -640.202,309.693 -519.696,382.24 -382.245,382.24 -171.137,382.24 0,211.108 0,0"
             style="fill:#ed1c24;fill-opacity:1;fill-rule:nonzero;stroke:none"
             id="path136" />
        </g>
      </g>
    </g>
  </g>
</svg>
